<svg xmlns="http://www.w3.org/2000/svg" xmlns:xlink="http://www.w3.org/1999/xlink" viewBox="0 0 144.61 23.76"><defs><style>.cls-1{opacity:0.5;}.cls-2{fill:url(#radial-gradient);}.cls-3{fill:url(#radial-gradient-2);}.cls-4{fill:url(#radial-gradient-3);}.cls-5{fill:url(#radial-gradient-4);}.cls-6{fill:url(#radial-gradient-5);}</style><radialGradient id="radial-gradient" cx="12.45" cy="11.88" r="12.17" gradientUnits="userSpaceOnUse"><stop offset="0" stop-color="#f5fbb1"/><stop offset="0.24" stop-color="#f5f8af"/><stop offset="0.43" stop-color="#f5eda7"/><stop offset="0.62" stop-color="#f5dc9a"/><stop offset="0.79" stop-color="#f5c389"/><stop offset="0.96" stop-color="#f5a472"/><stop offset="1" stop-color="#f59c6c"/></radialGradient><radialGradient id="radial-gradient-2" cx="42.38" cy="11.88" r="12.17" xlink:href="#radial-gradient"/><radialGradient id="radial-gradient-3" cx="72.3" cy="11.88" r="12.17" xlink:href="#radial-gradient"/><radialGradient id="radial-gradient-4" cx="102.23" cy="11.88" r="12.17" xlink:href="#radial-gradient"/><radialGradient id="radial-gradient-5" cx="132.15" cy="11.88" r="12.17" xlink:href="#radial-gradient"/></defs><g id="Layer_2" data-name="Layer 2"><g id="Layer_1-2" data-name="Layer 1"><g class="cls-1"><path class="cls-2" d="M13.16.44,16.4,7a.79.79,0,0,0,.59.44l7.23,1.05a.79.79,0,0,1,.44,1.35l-5.23,5.1a.8.8,0,0,0-.23.7l1.24,7.2a.79.79,0,0,1-1.15.84l-6.47-3.4a.81.81,0,0,0-.74,0l-6.46,3.4a.79.79,0,0,1-1.15-.84l1.23-7.2a.8.8,0,0,0-.23-.7L.24,9.83A.79.79,0,0,1,.68,8.48L7.91,7.43A.8.8,0,0,0,8.51,7L11.74.44A.79.79,0,0,1,13.16.44Z"/><path class="cls-3" d="M43.09.44,46.32,7a.8.8,0,0,0,.6.44l7.23,1.05a.79.79,0,0,1,.44,1.35l-5.23,5.1a.77.77,0,0,0-.23.7l1.23,7.2a.79.79,0,0,1-1.15.84l-6.46-3.4a.81.81,0,0,0-.74,0l-6.47,3.4a.79.79,0,0,1-1.15-.84l1.24-7.2a.83.83,0,0,0-.23-.7l-5.23-5.1a.79.79,0,0,1,.43-1.35l7.24-1.05A.79.79,0,0,0,38.43,7L41.67.44A.79.79,0,0,1,43.09.44Z"/><path class="cls-4" d="M73,.44,76.25,7a.79.79,0,0,0,.59.44l7.24,1.05a.79.79,0,0,1,.43,1.35l-5.23,5.1a.8.8,0,0,0-.23.7l1.24,7.2a.79.79,0,0,1-1.15.84l-6.47-3.4a.81.81,0,0,0-.74,0l-6.46,3.4a.79.79,0,0,1-1.15-.84l1.23-7.2a.77.77,0,0,0-.23-.7l-5.23-5.1a.79.79,0,0,1,.44-1.35l7.23-1.05a.8.8,0,0,0,.6-.44L71.59.44A.79.79,0,0,1,73,.44Z"/><path class="cls-5" d="M102.94.44,106.17,7a.8.8,0,0,0,.6.44L114,8.48a.79.79,0,0,1,.44,1.35l-5.23,5.1a.77.77,0,0,0-.23.7l1.23,7.2a.79.79,0,0,1-1.15.84l-6.46-3.4a.81.81,0,0,0-.74,0l-6.47,3.4a.79.79,0,0,1-1.15-.84l1.24-7.2a.8.8,0,0,0-.23-.7L90,9.83a.79.79,0,0,1,.44-1.35l7.23-1.05A.79.79,0,0,0,98.28,7L101.52.44A.79.79,0,0,1,102.94.44Z"/><path class="cls-6" d="M132.86.44,136.1,7a.79.79,0,0,0,.59.44l7.24,1.05a.79.79,0,0,1,.43,1.35l-5.23,5.1a.83.83,0,0,0-.23.7l1.24,7.2a.79.79,0,0,1-1.15.84l-6.47-3.4a.81.81,0,0,0-.74,0l-6.46,3.4a.79.79,0,0,1-1.15-.84l1.23-7.2a.77.77,0,0,0-.23-.7l-5.23-5.1a.79.79,0,0,1,.44-1.35l7.23-1.05a.8.8,0,0,0,.6-.44L131.44.44A.79.79,0,0,1,132.86.44Z"/></g></g></g></svg>