<svg id="Layer_1" data-name="Layer 1" xmlns="http://www.w3.org/2000/svg" viewBox="0 0 743.7 378.1"><defs><style>.cls-1{fill:#fff;}.cls-2{isolation:isolate;}</style></defs><g id="Layer_1-2" data-name="Layer 1"><polygon class="cls-1" points="401.23 168.91 388.87 178.38 408.86 189.95 385.19 187.32 377.04 205.2 376.51 186.79 360.47 186.27 375.73 176.54 373.36 162.08 383.61 172.07 401.23 168.91"/><polygon class="cls-1" points="584.78 87.39 564.01 86.61 574.79 115.79 552.44 92.39 528.51 104.22 544.02 84.5 527.98 70.3 551.91 73.19 562.17 56.1 563.75 75.3 584.78 87.39"/><polygon class="cls-1" points="591.09 136.04 600.82 126.05 598.72 140.51 613.97 149.98 598.19 150.77 597.67 169.18 589.52 151.29 565.85 154.19 585.57 142.62 573.21 133.15 591.09 136.04"/></g><g id="Layer_4" data-name="Layer 4"><path class="cls-1" d="M159,234.65c.27,3.95-2.1,7.1-6.31,7.37a8.62,8.62,0,0,1-6.31-3.16,12.63,12.63,0,0,0-11.31-5.52c-24.72,1-36.55,35.24-35.5,58.64,1,25.51,15.52,27.87,22.62,27.61a30,30,0,0,0,25.24-17.09,6.89,6.89,0,0,1,5.79-4.47c3.94-.26,6.31,2.89,6.31,7.1.26,6.05-13.68,26-37.87,27.35-19.72.79-35.24-11.05-36.55-39.71-1.58-34.71,18.67-71.79,50.23-73.1,13.14-.53,19.72,4.47,22.35,10.78A7.91,7.91,0,0,1,159,234.65Z"/><path class="cls-1" d="M199,229.4c-2.63,14.2-6,36.28-5,56,.79,14.72,4.2,29.71,14.72,29.19,20.25-1.06,36.82-43.13,41.55-93.62.53-3.94,3.16-6.31,7.89-6.31,3.16-.26,5.79,3.94,5.52,7.63-.26,3.15-1.58,15.25-3.15,26.29-2.11,17.36-3.95,32.08-3.42,43.13.52,10.25,2.63,17.09,7.36,21.56a7.2,7.2,0,0,1,1.84,4.73,7,7,0,0,1-6.57,7.37c-6.58.26-15.25-12.63-15.78-30.51-7.36,20-20.51,32.87-34.45,33.4-11.57.53-27.61-6-29.45-42.34-1.05-21.3,2.63-45.23,4.47-56.8.53-2.89,1.32-7.89,6.84-8.41a7.35,7.35,0,0,1,7.62,7.1Z"/><path class="cls-1" d="M302.88,317.23c-.52,3.94-3.15,6.31-6.83,6.31-3.95.26-6.58-2.9-6.58-6.58,0-2.1,6.31-54.69,5.79-65.21-.53-13.94-3.68-19.2-8.15-23.14a7.16,7.16,0,0,1-1.84-5.26,7,7,0,0,1,6.31-7.37c6.05-.26,15.51,10,15.51,26,6.05-21.3,22.62-31.56,38.66-32.35,4.2-.26,7.89,2.63,7.89,6.58.26,3.94-2.63,6.05-6.31,6.57-32.88,3.42-37.61,42.6-42.87,83.62Z"/><path class="cls-1" d="M388.87,218.09a4,4,0,0,1-.26,1.58c-4.73,23.14-8.68,64.68-9.2,94.93-.27,3.94-2.9,6.83-6.58,7.1-4.2.26-7.36-2.9-7.62-7.1s2.1-59.7,9.73-97.83c.52-3.94,4.47-6.31,8.41-5.52A7.65,7.65,0,0,1,388.87,218.09Z"/><path class="cls-1" d="M502,243.86c1.58,33.92-16.83,71.52-49.18,73.1C431,318,415.43,299.34,413.86,269.63a73.63,73.63,0,0,1,3.15-26,8,8,0,0,1,6.31-5.53c3.95-.26,6.84,3.16,7.1,6.58a11.4,11.4,0,0,1-.52,3.15c-1.58,4.74-2.11,13.68-1.84,20.51.78,16.57,8.41,35.5,24.45,35,22.88-1.05,36-31.82,35-58.91-.53-12.62-6.58-29.71-21.83-28.92-12.1.52-15.78,11-15.52,18.67.53,12.62,10.26,12.36,15.52,12.09a7.13,7.13,0,0,1,7.63,6.58c0,1.84-.27,7.1-8.16,7.36-18.4.79-28.4-10.78-29.19-25.51-.78-15.25,9.47-31.55,29.72-32.6C486.7,201.26,500.63,218.61,502,243.86Z"/><path class="cls-1" d="M540.34,213.62c-2.63,14.2-6.05,36.29-5,56,.79,14.72,4.21,29.71,14.73,29.19,20.25-1.05,36.82-43.13,41.55-93.62.53-3.94,3.15-6.31,7.89-6.31,3.15-.26,5.78,4,5.52,7.63-.26,3.15-1.58,15.25-3.15,26.29-2.11,17.36-4,32.09-3.42,43.13.52,10.26,2.63,17.09,7.36,21.56a7.25,7.25,0,0,1,1.84,4.74,7,7,0,0,1-6.57,7.36c-6.58.26-15.26-12.62-15.78-30.5-7.36,20-20.51,32.87-34.45,33.39-11.57.53-27.61-6.05-29.45-42.34-1-21.3,2.63-45.23,4.47-56.8.52-2.89,1.31-7.88,6.84-8.41a7.35,7.35,0,0,1,7.62,7.1Z"/><path class="cls-1" d="M656.83,267.52c.27,5.53-4.2,6.58-6,6.32s-2.9-.79-5.26-.79c-6,.26-7.37,5-7.1,9.46.26,7.63,10,14.73,21.3,14.2s23.14-7.88,22.61-22.09c-.26-7.62-4.47-16.3-19.19-23.4-10.52-5-23.93-12.88-24.72-28.92-.53-13.15,9.2-27.09,28.92-28.14,19.2-.79,27.09,12.36,27.35,17.88.26,4.21-2.89,7.36-7.1,7.63-1.84,0-5.26-1.32-5.78-3.95-1.06-3.15-5.79-10-14.2-9.47-10.26.53-15.52,7.1-15.26,15.26.27,6,3.42,9.73,16.31,16.83,16,8.41,26.82,17.09,27.61,33.39.79,19.72-12.36,35-36.55,36-18.15.79-35.24-8.94-35.77-24.72-.52-13.41,8.68-23.4,20.78-23.93C650.79,259.64,656.57,261.21,656.83,267.52Z"/><g class="cls-2"><path class="cls-1" d="M164.3,81.87c8.15-.26,13.15,6.31,14.2,9.47.79,2.63,3.95,3.94,5.79,3.94a7.36,7.36,0,0,0,7.1-7.62C191.12,82.13,183.24,69,164,69.78c-19.72.78-29.45,15-28.93,28.13.79,15.78,14.2,23.93,24.72,28.93,14.73,6.84,18.94,15.78,19.2,23.4.79,14.2-11.05,21.57-22.62,22.09s-21-6.57-21.3-14.2c-.26-4.47,1-9.2,7.1-9.47,2.11,0,3.16.53,5.26.79a5.62,5.62,0,0,0,6.05-6.31c-.26-6.31-6.05-7.89-11.83-7.62-12.1.52-21.57,10.52-20.78,23.93.79,15.77,17.88,25.5,35.77,24.72,24.19-1.06,37.34-16.31,36.55-36-.79-16.3-11.57-25-27.61-33.4-13.15-7.1-16-10.78-16.31-16.83C148.79,89,154.05,82.4,164.3,81.87Z"/><path class="cls-1" d="M265.81,66.88c-8.68,0-15,0-19.46.27,1.31-7.1,4.73-24.2,7.36-33.66a11.8,11.8,0,0,0,.53-3.42c-.27-3.95-3.42-6.31-7.63-6.05a7.37,7.37,0,0,0-6.05,5.26c-2.89,12.88-6.05,27.61-8.15,38.39-11.31.79-24.72,1.84-24.46,10.78.27,3.42,2.37,5.26,4.74,5.26,4.47-.26,7.89-1.84,17.09-2.36-5,24.45-6.05,42.33-5.26,57.59,1,24.45,9.47,37.07,25.51,38.91.26,0,1.84.27,2.37.27,3.68-.53,6.83-4,6.57-7.63-.26-3.42-3.16-6.57-6.57-6.31-3.16-.53-12.63-1.58-13.68-26.82-.79-16.31,1.05-36.29,6.05-57.07,6,0,16.83.27,22.88,0a6,6,0,0,0,5.78-6.57C272.91,69.78,269.49,67.41,265.81,66.88Z"/><path class="cls-1" d="M336,60.57c-35,1.58-55.75,48.65-54.17,81.78,1,23.93,14.46,32.87,27.35,32.09,22.87-1.06,32.08-22.88,31.81-28.14-.26-4-2.89-6.84-7.1-6.58a6.15,6.15,0,0,0-5.78,4.47c-2.89,8.68-8.68,16.57-17.36,17.1-8.15.26-13.93-7.63-14.72-19.46C294.73,112.9,311,75.3,335.23,74c8.15-.26,16.83,5,17.62,20.25.52,11-1.05,23.67-2.37,35.5-1.05,11.57-2.63,20.51-2.37,27.09.27,6.31,2.63,15.25,9.73,14.72a7.42,7.42,0,0,0,7.1-7.1,5.9,5.9,0,0,0-1.57-3.68,13,13,0,0,1-.79-4.21c-.27-6.31,1.05-17.35,2.1-25.5,1.58-12.1,2.89-26.3,2.37-38.4C365.73,70.83,354.16,59.78,336,60.57Z"/><path class="cls-1" d="M471.71,53.21A6.51,6.51,0,0,0,463,51.89a6.08,6.08,0,0,0-1.58,7.63A5.57,5.57,0,0,0,459.87,64a125.29,125.29,0,0,1-4.2,39.45,122.46,122.46,0,0,1-19.2,40.49c-5,6.58-14.2,13.41-21,8.15-2.63-2.1-3.94-5.52-4.73-8.67-6.31-22.62-2.1-46.81.79-69.95.52-3.16.79-6.58-.53-9.47-1-2.89-4.47-5.26-7.36-4.47-3.16,1-4.21,4.47-5,7.63a191.65,191.65,0,0,0-3.94,67c1,9.47,3.42,19.2,9.47,26.3,14.46,16.57,32.34,5.52,43.65-8.42,16.3-20.51,22.35-47.59,23.66-73.36,11.31,32.6,4.47,77.83-13.41,98.08-9.46,10.78-20.51,12.89-32.6,6a6.18,6.18,0,1,0-6.05,10.78c7.1,4,14.2,5.79,21,5.52,9.73-.52,18.94-5.26,26.56-13.93C491.43,156.82,498.53,89.24,471.71,53.21Z"/></g></g></svg>