<?xml version="1.0" encoding="utf-8"?>
<!-- Generator: Adobe Illustrator 25.2.0, SVG Export Plug-In . SVG Version: 6.00 Build 0)  -->
<svg version="1.1" xmlns="http://www.w3.org/2000/svg" xmlns:xlink="http://www.w3.org/1999/xlink" x="0px" y="0px"
	 viewBox="0 0 281.7 144.1" style="enable-background:new 0 0 281.7 144.1;" xml:space="preserve">
<style type="text/css">
	.st0{fill:#FFFFFF;enable-background:new    ;}
	.st1{enable-background:new    ;}
	.st2{fill:#FFFFFF;}
</style>
<g id="Layer_1">
	<polygon class="st0" points="141.1,64.3 136.4,67.9 144,72.3 135,71.3 131.9,78.1 131.7,71.1 125.6,70.9 131.4,67.2 130.5,61.7 
		134.4,65.5 	"/>
	<polygon class="st0" points="210.9,33.3 203,33 207.1,44.1 198.6,35.2 189.5,39.7 195.4,32.2 189.3,26.8 198.4,27.9 202.3,21.4 
		202.9,28.7 	"/>
	<polygon class="st0" points="213.3,51.8 217,48 216.2,53.5 222,57.1 216,57.4 215.8,64.4 212.7,57.6 203.7,58.7 211.2,54.3 
		206.5,50.7 	"/>
</g>
<g id="Layer_4">
	<g>
		<path class="st0" d="M49,89.3c0.1,1.5-0.8,2.7-2.4,2.8c-0.8,0-1.7-0.4-2.4-1.2c-0.9-1.2-2.2-2.2-4.3-2.1
			c-9.4,0.4-13.9,13.4-13.5,22.3c0.4,9.7,5.9,10.6,8.6,10.5c3.3-0.2,7.4-2,9.6-6.5c0.4-0.9,1.1-1.6,2.2-1.7c1.5-0.1,2.4,1.1,2.4,2.7
			c0.1,2.3-5.2,9.9-14.4,10.4c-7.5,0.3-13.4-4.2-13.9-15.1C20.3,98.2,28,84.1,40,83.6c5-0.2,7.5,1.7,8.5,4.1
			C48.8,88.1,49,88.8,49,89.3z"/>
		<path class="st0" d="M64.2,87.3c-1,5.4-2.3,13.8-1.9,21.3c0.3,5.6,1.6,11.3,5.6,11.1c7.7-0.4,14-16.4,15.8-35.6
			c0.2-1.5,1.2-2.4,3-2.4c1.2-0.1,2.2,1.5,2.1,2.9c-0.1,1.2-0.6,5.8-1.2,10c-0.8,6.6-1.5,12.2-1.3,16.4c0.2,3.9,1,6.5,2.8,8.2
			c0.5,0.6,0.7,1.2,0.7,1.8c0.1,1.5-1.1,2.7-2.5,2.8c-2.5,0.1-5.8-4.8-6-11.6c-2.8,7.6-7.8,12.5-13.1,12.7
			c-4.4,0.2-10.5-2.3-11.2-16.1c-0.4-8.1,1-17.2,1.7-21.6c0.2-1.1,0.5-3,2.6-3.2c1.6-0.1,2.8,1.2,2.9,2.7L64.2,87.3z"/>
		<path class="st0" d="M103.7,120.7c-0.2,1.5-1.2,2.4-2.6,2.4c-1.5,0.1-2.5-1.1-2.5-2.5c0-0.8,2.4-20.8,2.2-24.8
			c-0.2-5.3-1.4-7.3-3.1-8.8C97.2,86.5,97,85.8,97,85c-0.1-1.5,1.1-2.7,2.4-2.8c2.3-0.1,5.9,3.8,5.9,9.9c2.3-8.1,8.6-12,14.7-12.3
			c1.6-0.1,3,1,3,2.5c0.1,1.5-1,2.3-2.4,2.5c-12.5,1.3-14.3,16.2-16.3,31.8L103.7,120.7z"/>
		<path class="st0" d="M136.4,83c0,0.1,0,0.4-0.1,0.6c-1.8,8.8-3.3,24.6-3.5,36.1c-0.1,1.5-1.1,2.6-2.5,2.7
			c-1.6,0.1-2.8-1.1-2.9-2.7c-0.1-1.6,0.8-22.7,3.7-37.2c0.2-1.5,1.7-2.4,3.2-2.1C135.4,80.7,136.3,81.7,136.4,83z"/>
		<path class="st0" d="M179.4,92.8c0.6,12.9-6.4,27.2-18.7,27.8c-8.3,0.4-14.2-6.7-14.8-18c-0.2-3.4,0.2-6.5,1.2-9.9
			c0.3-1.1,1.4-2,2.4-2.1c1.5-0.1,2.6,1.2,2.7,2.5c0,0.5-0.1,0.8-0.2,1.2c-0.6,1.8-0.8,5.2-0.7,7.8c0.3,6.3,3.2,13.5,9.3,13.3
			c8.7-0.4,13.7-12.1,13.3-22.4c-0.2-4.8-2.5-11.3-8.3-11c-4.6,0.2-6,4.2-5.9,7.1c0.2,4.8,3.9,4.7,5.9,4.6c1.6-0.1,2.8,1.1,2.9,2.5
			c0,0.7-0.1,2.7-3.1,2.8c-7,0.3-10.8-4.1-11.1-9.7c-0.3-5.8,3.6-12,11.3-12.4C173.6,76.6,178.9,83.2,179.4,92.8z"/>
		<path class="st0" d="M194,81.3c-1,5.4-2.3,13.8-1.9,21.3c0.3,5.6,1.6,11.3,5.6,11.1c7.7-0.4,14-16.4,15.8-35.6
			c0.2-1.5,1.2-2.4,3-2.4c1.2-0.1,2.2,1.5,2.1,2.9c-0.1,1.2-0.6,5.8-1.2,10c-0.8,6.6-1.5,12.2-1.3,16.4c0.2,3.9,1,6.5,2.8,8.2
			c0.5,0.6,0.7,1.2,0.7,1.8c0.1,1.5-1.1,2.7-2.5,2.8c-2.5,0.1-5.8-4.8-6-11.6c-2.8,7.6-7.8,12.5-13.1,12.7
			c-4.4,0.2-10.5-2.3-11.2-16.1c-0.4-8.1,1-17.2,1.7-21.6c0.2-1.1,0.5-3,2.6-3.2c1.6-0.1,2.8,1.2,2.9,2.7L194,81.3z"/>
		<path class="st0" d="M238.3,101.8c0.1,2.1-1.6,2.5-2.3,2.4c-0.7-0.1-1.1-0.3-2-0.3c-2.3,0.1-2.8,1.9-2.7,3.6
			c0.1,2.9,3.8,5.6,8.1,5.4s8.8-3,8.6-8.4c-0.1-2.9-1.7-6.2-7.3-8.9c-4-1.9-9.1-4.9-9.4-11c-0.2-5,3.5-10.3,11-10.7
			c7.3-0.3,10.3,4.7,10.4,6.8c0.1,1.6-1.1,2.8-2.7,2.9c-0.7,0-2-0.5-2.2-1.5c-0.4-1.2-2.2-3.8-5.4-3.6c-3.9,0.2-5.9,2.7-5.8,5.8
			c0.1,2.3,1.3,3.7,6.2,6.4c6.1,3.2,10.2,6.5,10.5,12.7c0.3,7.5-4.7,13.3-13.9,13.7c-6.9,0.3-13.4-3.4-13.6-9.4
			c-0.2-5.1,3.3-8.9,7.9-9.1C236,98.8,238.2,99.4,238.3,101.8z"/>
		<g class="st1">
			<path class="st2" d="M51,31.2c3.1-0.1,5,2.4,5.4,3.6c0.3,1,1.5,1.5,2.2,1.5c1.6-0.1,2.7-1.3,2.7-2.9c-0.1-2.1-3.1-7.1-10.4-6.8
				c-7.5,0.3-11.2,5.7-11,10.7c0.3,6,5.4,9.1,9.4,11c5.6,2.6,7.2,6,7.3,8.9c0.3,5.4-4.2,8.2-8.6,8.4s-8-2.5-8.1-5.4
				c-0.1-1.7,0.4-3.5,2.7-3.6c0.8,0,1.2,0.2,2,0.3c0.7,0.1,2.4-0.4,2.3-2.4c-0.1-2.4-2.3-3-4.5-2.9c-4.6,0.2-8.2,4-7.9,9.1
				c0.3,6,6.8,9.7,13.6,9.4c9.2-0.4,14.2-6.2,13.9-13.7c-0.3-6.2-4.4-9.5-10.5-12.7c-5-2.7-6.1-4.1-6.2-6.4
				C45.1,33.9,47.1,31.4,51,31.2z"/>
			<path class="st2" d="M89.6,25.5c-3.3,0-5.7,0-7.4,0.1c0.5-2.7,1.8-9.2,2.8-12.8c0.1-0.2,0.2-0.9,0.2-1.3
				c-0.1-1.5-1.3-2.4-2.9-2.3c-1.1,0.2-2,0.9-2.3,2c-1.1,4.9-2.3,10.5-3.1,14.6c-4.3,0.3-9.4,0.7-9.3,4.1c0.1,1.3,0.9,2,1.8,2
				c1.7-0.1,3-0.7,6.5-0.9c-1.9,9.3-2.3,16.1-2,21.9c0.4,9.3,3.6,14.1,9.7,14.8c0.1,0,0.7,0.1,0.9,0.1c1.4-0.2,2.6-1.5,2.5-2.9
				c-0.1-1.3-1.2-2.5-2.5-2.4c-1.2-0.2-4.8-0.6-5.2-10.2c-0.3-6.2,0.4-13.8,2.3-21.7c2.3,0,6.4,0.1,8.7,0c1.3-0.1,2.3-1.1,2.2-2.5
				C92.3,26.6,91,25.7,89.6,25.5z"/>
			<path class="st2" d="M116.3,23.1C103,23.7,95.1,41.6,95.7,54.2c0.4,9.1,5.5,12.5,10.4,12.2c8.7-0.4,12.2-8.7,12.1-10.7
				c-0.1-1.5-1.1-2.6-2.7-2.5c-1,0-1.9,0.7-2.2,1.7c-1.1,3.3-3.3,6.3-6.6,6.5c-3.1,0.1-5.3-2.9-5.6-7.4c-0.5-11,5.7-25.3,14.9-25.8
				c3.1-0.1,6.4,1.9,6.7,7.7c0.2,4.2-0.4,9-0.9,13.5c-0.4,4.4-1,7.8-0.9,10.3c0.1,2.4,1,5.8,3.7,5.6c1.5-0.1,2.7-1.3,2.7-2.7
				c0-0.6-0.3-1-0.6-1.4c-0.1-0.4-0.3-0.8-0.3-1.6c-0.1-2.4,0.4-6.6,0.8-9.7c0.6-4.6,1.1-10,0.9-14.6
				C127.6,27,123.2,22.8,116.3,23.1z"/>
			<path class="st2" d="M167.9,20.3c-0.8-1-2.2-1.2-3.3-0.5c-0.9,0.7-1.1,1.9-0.6,2.9c-0.4,0.5-0.7,1-0.6,1.7c0.3,5-0.3,10.1-1.6,15
				c-1.5,5.6-4,10.9-7.3,15.4c-1.9,2.5-5.4,5.1-8,3.1c-1-0.8-1.5-2.1-1.8-3.3c-2.4-8.6-0.8-17.8,0.3-26.6c0.2-1.2,0.3-2.5-0.2-3.6
				c-0.4-1.1-1.7-2-2.8-1.7c-1.2,0.4-1.6,1.7-1.9,2.9c-2,8.3-2.5,17-1.5,25.5c0.4,3.6,1.3,7.3,3.6,10c5.5,6.3,12.3,2.1,16.6-3.2
				c6.2-7.8,8.5-18.1,9-27.9c4.3,12.4,1.7,29.6-5.1,37.3c-3.6,4.1-7.8,4.9-12.4,2.3c-1.1-0.6-2.5-0.2-3.2,0.9
				c-0.6,1.1-0.2,2.5,0.9,3.2c2.7,1.5,5.4,2.2,8,2.1c3.7-0.2,7.2-2,10.1-5.3C175.4,59.7,178.1,34,167.9,20.3z"/>
		</g>
	</g>
</g>
</svg>
