<svg id="Layer_1" data-name="Layer 1" xmlns="http://www.w3.org/2000/svg" xmlns:xlink="http://www.w3.org/1999/xlink" viewBox="0 0 300 520"><defs><style>.cls-1{opacity:0.5;}.cls-2{fill:url(#radial-gradient);}.cls-3{fill:url(#radial-gradient-2);}.cls-4{fill:url(#radial-gradient-3);}.cls-5{fill:url(#radial-gradient-4);}.cls-6{fill:url(#radial-gradient-5);}</style><radialGradient id="radial-gradient" cx="90.15" cy="485.49" r="12.17" gradientUnits="userSpaceOnUse"><stop offset="0" stop-color="#f5fbb1"/><stop offset="0.24" stop-color="#f5f8af"/><stop offset="0.43" stop-color="#f5eda7"/><stop offset="0.62" stop-color="#f5dc9a"/><stop offset="0.79" stop-color="#f5c389"/><stop offset="0.96" stop-color="#f5a472"/><stop offset="1" stop-color="#f59c6c"/></radialGradient><radialGradient id="radial-gradient-2" cx="120.07" cy="485.49" r="12.17" xlink:href="#radial-gradient"/><radialGradient id="radial-gradient-3" cx="150" cy="485.49" r="12.17" xlink:href="#radial-gradient"/><radialGradient id="radial-gradient-4" cx="179.93" cy="485.49" r="12.17" xlink:href="#radial-gradient"/><radialGradient id="radial-gradient-5" cx="209.85" cy="485.49" r="12.17" xlink:href="#radial-gradient"/></defs><g class="cls-1"><path class="cls-2" d="M90.86,474.05l3.23,6.56a.81.81,0,0,0,.6.43l7.23,1a.79.79,0,0,1,.44,1.35l-5.23,5.1a.8.8,0,0,0-.23.7l1.24,7.21a.79.79,0,0,1-1.15.83l-6.47-3.4a.81.81,0,0,0-.74,0l-6.47,3.4a.79.79,0,0,1-1.15-.83l1.24-7.21a.8.8,0,0,0-.23-.7l-5.23-5.1a.79.79,0,0,1,.44-1.35l7.23-1a.78.78,0,0,0,.59-.43l3.24-6.56A.79.79,0,0,1,90.86,474.05Z"/><path class="cls-3" d="M120.79,474.05l3.23,6.56a.8.8,0,0,0,.6.43l7.23,1a.79.79,0,0,1,.44,1.35l-5.24,5.1a.79.79,0,0,0-.22.7l1.23,7.21a.79.79,0,0,1-1.15.83l-6.47-3.4a.79.79,0,0,0-.73,0l-6.47,3.4a.79.79,0,0,1-1.15-.83l1.23-7.21a.79.79,0,0,0-.22-.7l-5.24-5.1a.79.79,0,0,1,.44-1.35l7.23-1a.81.81,0,0,0,.6-.43l3.23-6.56A.8.8,0,0,1,120.79,474.05Z"/><path class="cls-4" d="M150.71,474.05l3.23,6.56a.81.81,0,0,0,.6.43l7.23,1a.79.79,0,0,1,.44,1.35l-5.23,5.1a.8.8,0,0,0-.23.7l1.24,7.21a.79.79,0,0,1-1.15.83l-6.47-3.4a.81.81,0,0,0-.74,0l-6.47,3.4a.79.79,0,0,1-1.15-.83l1.24-7.21a.8.8,0,0,0-.23-.7l-5.23-5.1a.79.79,0,0,1,.44-1.35l7.23-1a.81.81,0,0,0,.6-.43l3.23-6.56A.79.79,0,0,1,150.71,474.05Z"/><path class="cls-5" d="M180.64,474.05l3.23,6.56a.81.81,0,0,0,.6.43l7.23,1a.79.79,0,0,1,.44,1.35l-5.24,5.1a.79.79,0,0,0-.22.7l1.23,7.21a.79.79,0,0,1-1.15.83l-6.47-3.4a.79.79,0,0,0-.73,0l-6.47,3.4a.79.79,0,0,1-1.15-.83l1.23-7.21a.79.79,0,0,0-.22-.7l-5.24-5.1a.79.79,0,0,1,.44-1.35l7.23-1a.8.8,0,0,0,.6-.43l3.23-6.56A.8.8,0,0,1,180.64,474.05Z"/><path class="cls-6" d="M210.56,474.05l3.24,6.56a.78.78,0,0,0,.59.43l7.23,1a.79.79,0,0,1,.44,1.35l-5.23,5.1a.8.8,0,0,0-.23.7l1.24,7.21a.79.79,0,0,1-1.15.83l-6.47-3.4a.81.81,0,0,0-.74,0l-6.47,3.4a.79.79,0,0,1-1.15-.83l1.24-7.21a.8.8,0,0,0-.23-.7l-5.23-5.1a.79.79,0,0,1,.44-1.35l7.23-1a.81.81,0,0,0,.6-.43l3.23-6.56A.79.79,0,0,1,210.56,474.05Z"/></g></svg>